<svg width="2356" height="481" viewBox="0 0 2356 481" fill="none" xmlns="http://www.w3.org/2000/svg">
<path d="M430.5 182.653V318.153H385.25V304.653C376.417 315.153 363.083 320.403 345.25 320.403C332.917 320.403 321.667 317.57 311.5 311.903C301.5 306.07 293.5 297.82 287.5 287.153C281.667 276.487 278.75 264.153 278.75 250.153C278.75 236.153 281.667 223.903 287.5 213.403C293.5 202.737 301.5 194.57 311.5 188.903C321.667 183.237 332.917 180.403 345.25 180.403C361.25 180.403 373.833 185.07 383 194.403V182.653H430.5ZM355.25 282.653C363.583 282.653 370.417 279.82 375.75 274.153C381.083 268.32 383.75 260.32 383.75 250.153C383.75 240.153 381.083 232.32 375.75 226.653C370.417 220.987 363.583 218.153 355.25 218.153C346.917 218.153 340.083 220.987 334.75 226.653C329.417 232.32 326.75 240.153 326.75 250.153C326.75 260.32 329.417 268.32 334.75 274.153C340.083 279.82 346.917 282.653 355.25 282.653ZM506.328 198.903C511.161 192.737 517.411 188.153 525.078 185.153C532.911 181.987 541.828 180.403 551.828 180.403V223.153C547.495 222.653 543.911 222.403 541.078 222.403C530.911 222.403 522.911 225.153 517.078 230.653C511.411 236.153 508.578 244.57 508.578 255.903V318.153H461.078V182.653H506.328V198.903ZM718.33 182.653L662.33 318.153H613.33L557.58 182.653H606.33L638.83 265.403L673.08 182.653H718.33ZM730.609 182.653H778.109V318.153H730.609V182.653ZM754.359 167.653C745.693 167.653 738.693 165.237 733.359 160.403C728.026 155.57 725.359 149.57 725.359 142.403C725.359 135.237 728.026 129.237 733.359 124.403C738.693 119.57 745.693 117.153 754.359 117.153C763.026 117.153 770.026 119.487 775.359 124.153C780.693 128.653 783.359 134.487 783.359 141.653C783.359 149.153 780.693 155.403 775.359 160.403C770.026 165.237 763.026 167.653 754.359 167.653ZM876.979 320.403C862.479 320.403 849.395 317.403 837.729 311.403C826.062 305.403 816.895 297.07 810.229 286.403C803.729 275.737 800.479 263.653 800.479 250.153C800.479 236.82 803.729 224.82 810.229 214.153C816.895 203.487 825.979 195.237 837.479 189.403C849.145 183.403 862.312 180.403 876.979 180.403C891.645 180.403 904.812 183.403 916.479 189.403C928.145 195.237 937.229 203.487 943.729 214.153C950.229 224.653 953.479 236.653 953.479 250.153C953.479 263.653 950.229 275.737 943.729 286.403C937.229 297.07 928.145 305.403 916.479 311.403C904.812 317.403 891.645 320.403 876.979 320.403ZM876.979 282.653C885.312 282.653 892.145 279.82 897.479 274.153C902.812 268.32 905.479 260.32 905.479 250.153C905.479 240.153 902.812 232.32 897.479 226.653C892.145 220.987 885.312 218.153 876.979 218.153C868.645 218.153 861.812 220.987 856.479 226.653C851.145 232.32 848.479 240.153 848.479 250.153C848.479 260.32 851.145 268.32 856.479 274.153C861.812 279.82 868.645 282.653 876.979 282.653Z" fill="#274073"/>
<path d="M1675.25 320.403C1660.75 320.403 1647.67 317.403 1636 311.403C1624.33 305.403 1615.17 297.07 1608.5 286.403C1602 275.737 1598.75 263.653 1598.75 250.153C1598.75 236.82 1602 224.82 1608.5 214.153C1615.17 203.487 1624.25 195.237 1635.75 189.403C1647.42 183.403 1660.58 180.403 1675.25 180.403C1689.92 180.403 1703.08 183.403 1714.75 189.403C1726.42 195.237 1735.5 203.487 1742 214.153C1748.5 224.653 1751.75 236.653 1751.75 250.153C1751.75 263.653 1748.5 275.737 1742 286.403C1735.5 297.07 1726.42 305.403 1714.75 311.403C1703.08 317.403 1689.92 320.403 1675.25 320.403ZM1675.25 282.653C1683.58 282.653 1690.42 279.82 1695.75 274.153C1701.08 268.32 1703.75 260.32 1703.75 250.153C1703.75 240.153 1701.08 232.32 1695.75 226.653C1690.42 220.987 1683.58 218.153 1675.25 218.153C1666.92 218.153 1660.08 220.987 1654.75 226.653C1649.42 232.32 1646.75 240.153 1646.75 250.153C1646.75 260.32 1649.42 268.32 1654.75 274.153C1660.08 279.82 1666.92 282.653 1675.25 282.653ZM1843 320.403C1828 320.403 1814.59 317.403 1802.75 311.403C1790.92 305.403 1781.67 297.07 1775 286.403C1768.5 275.737 1765.25 263.653 1765.25 250.153C1765.25 236.653 1768.5 224.653 1775 214.153C1781.67 203.487 1790.92 195.237 1802.75 189.403C1814.59 183.403 1828 180.403 1843 180.403C1858.34 180.403 1871.59 183.737 1882.75 190.403C1893.92 196.903 1901.84 205.987 1906.5 217.653L1869.75 236.403C1863.59 224.237 1854.59 218.153 1842.75 218.153C1834.25 218.153 1827.17 220.987 1821.5 226.653C1816 232.32 1813.25 240.153 1813.25 250.153C1813.25 260.32 1816 268.32 1821.5 274.153C1827.17 279.82 1834.25 282.653 1842.75 282.653C1854.59 282.653 1863.59 276.57 1869.75 264.403L1906.5 283.153C1901.84 294.82 1893.92 303.987 1882.75 310.653C1871.59 317.153 1858.34 320.403 1843 320.403ZM2012.15 180.403C2028.98 180.403 2042.48 185.403 2052.65 195.403C2062.98 205.403 2068.15 220.487 2068.15 240.653V318.153H2020.65V248.403C2020.65 229.903 2013.23 220.653 1998.4 220.653C1990.23 220.653 1983.65 223.32 1978.65 228.653C1973.82 233.987 1971.4 241.987 1971.4 252.653V318.153H1923.9V132.653H1971.4V195.153C1976.57 190.32 1982.65 186.653 1989.65 184.153C1996.65 181.653 2004.15 180.403 2012.15 180.403ZM2243.18 182.653V318.153H2197.93V304.653C2189.09 315.153 2175.76 320.403 2157.93 320.403C2145.59 320.403 2134.34 317.57 2124.18 311.903C2114.18 306.07 2106.18 297.82 2100.18 287.153C2094.34 276.487 2091.43 264.153 2091.43 250.153C2091.43 236.153 2094.34 223.903 2100.18 213.403C2106.18 202.737 2114.18 194.57 2124.18 188.903C2134.34 183.237 2145.59 180.403 2157.93 180.403C2173.93 180.403 2186.51 185.07 2195.68 194.403V182.653H2243.18ZM2167.93 282.653C2176.26 282.653 2183.09 279.82 2188.43 274.153C2193.76 268.32 2196.43 260.32 2196.43 250.153C2196.43 240.153 2193.76 232.32 2188.43 226.653C2183.09 220.987 2176.26 218.153 2167.93 218.153C2159.59 218.153 2152.76 220.987 2147.43 226.653C2142.09 232.32 2139.43 240.153 2139.43 250.153C2139.43 260.32 2142.09 268.32 2147.43 274.153C2152.76 279.82 2159.59 282.653 2167.93 282.653Z" fill="#274073"/>
<path d="M210.406 273.116L210.6 314.153H265.2L264.837 187.212L210.406 273.116Z" fill="#274073"/>
<path d="M264.011 104.153L144.064 293.453H142.453L22.5065 104.153H69.9L143.82 225.483L215.7 104.153H264.011Z" fill="#274073"/>
<path d="M21 314.153V186.14L75.9 272.783V314.153H21Z" fill="#274073"/>
<path d="M1403 215.977V317.153H1462.4V261.353H1494.82L1532.9 317.153H1596.5L1551.18 251.116C1563.89 245.002 1573.79 236.615 1580.9 225.953C1588.5 214.353 1592.3 200.653 1592.3 184.853C1592.3 168.853 1588.5 155.053 1580.9 143.453C1573.3 131.653 1562.5 122.653 1548.5 116.453C1534.7 110.253 1518.2 107.153 1499 107.153H1403V153.95L1466 153.948V153.953H1495.4C1507.8 153.953 1517 156.653 1523 162.053C1529.2 167.453 1532.3 175.053 1532.3 184.853C1532.3 194.453 1529.2 201.953 1523 207.353C1517 212.753 1507.8 215.453 1495.4 215.453H1466V215.5L1403 215.977Z" fill="#274073"/>
<path d="M34.19 457.453C28.99 457.453 24.5267 456.847 20.8 455.633C17.16 454.42 14.17 452.903 11.83 451.083C9.49 449.263 7.75667 447.443 6.63 445.623C5.50333 443.803 4.89667 442.287 4.81 441.073C4.72333 440.12 4.98333 439.383 5.59 438.863C6.28333 438.257 7.02 437.953 7.8 437.953H18.07C18.4167 437.953 18.72 437.997 18.98 438.083C19.24 438.17 19.5867 438.43 20.02 438.863C21.1467 439.817 22.3167 440.813 23.53 441.853C24.83 442.893 26.3467 443.803 28.08 444.583C29.8133 445.277 31.98 445.623 34.58 445.623C37.96 445.623 40.7767 444.973 43.03 443.673C45.37 442.287 46.54 440.337 46.54 437.823C46.54 436.003 46.02 434.53 44.98 433.403C44.0267 432.277 42.2067 431.28 39.52 430.413C36.8333 429.46 33.02 428.463 28.08 427.423C23.2267 426.297 19.1967 424.867 15.99 423.133C12.7833 421.4 10.4 419.233 8.84 416.633C7.28 414.033 6.5 411 6.5 407.533C6.5 404.153 7.49667 400.947 9.49 397.913C11.57 394.793 14.6033 392.237 18.59 390.243C22.6633 388.25 27.69 387.253 33.67 387.253C38.35 387.253 42.4233 387.86 45.89 389.073C49.3567 390.2 52.2167 391.63 54.47 393.363C56.81 395.097 58.5867 396.873 59.8 398.693C61.0133 400.427 61.6633 401.943 61.75 403.243C61.8367 404.197 61.5767 404.977 60.97 405.583C60.3633 406.103 59.67 406.363 58.89 406.363H49.27C48.8367 406.363 48.4467 406.277 48.1 406.103C47.7533 405.93 47.4067 405.713 47.06 405.453C46.1067 404.587 45.0667 403.677 43.94 402.723C42.8133 401.77 41.4267 400.947 39.78 400.253C38.22 399.473 36.14 399.083 33.54 399.083C30.2467 399.083 27.7333 399.82 26 401.293C24.2667 402.68 23.4 404.457 23.4 406.623C23.4 408.097 23.79 409.397 24.57 410.523C25.4367 411.563 27.1267 412.56 29.64 413.513C32.1533 414.467 35.9667 415.463 41.08 416.503C46.8867 417.543 51.48 419.103 54.86 421.183C58.3267 423.177 60.7533 425.517 62.14 428.203C63.6133 430.803 64.35 433.707 64.35 436.913C64.35 440.813 63.18 444.323 60.84 447.443C58.5867 450.563 55.2067 453.033 50.7 454.853C46.28 456.587 40.7767 457.453 34.19 457.453ZM119.369 457.453C112.436 457.453 106.586 456.24 101.819 453.813C97.1395 451.387 93.5428 447.963 91.0295 443.543C88.6028 439.123 87.2161 433.967 86.8695 428.073C86.7828 426.513 86.7395 424.607 86.7395 422.353C86.7395 420.1 86.7828 418.193 86.8695 416.633C87.2161 410.653 88.6461 405.497 91.1595 401.163C93.7595 396.743 97.3995 393.32 102.079 390.893C106.846 388.467 112.609 387.253 119.369 387.253C126.129 387.253 131.849 388.467 136.529 390.893C141.296 393.32 144.936 396.743 147.449 401.163C150.049 405.497 151.523 410.653 151.869 416.633C151.956 418.193 151.999 420.1 151.999 422.353C151.999 424.607 151.956 426.513 151.869 428.073C151.523 433.967 150.093 439.123 147.579 443.543C145.153 447.963 141.556 451.387 136.789 453.813C132.109 456.24 126.303 457.453 119.369 457.453ZM119.369 444.583C123.963 444.583 127.516 443.153 130.029 440.293C132.543 437.347 133.929 433.057 134.189 427.423C134.276 426.123 134.319 424.433 134.319 422.353C134.319 420.273 134.276 418.583 134.189 417.283C133.929 411.737 132.543 407.49 130.029 404.543C127.516 401.597 123.963 400.123 119.369 400.123C114.776 400.123 111.223 401.597 108.709 404.543C106.196 407.49 104.809 411.737 104.549 417.283C104.463 418.583 104.419 420.273 104.419 422.353C104.419 424.433 104.463 426.123 104.549 427.423C104.809 433.057 106.196 437.347 108.709 440.293C111.223 443.153 114.776 444.583 119.369 444.583ZM203.193 457.453C197.906 457.453 193.313 456.283 189.413 453.943C185.6 451.517 182.653 448.137 180.573 443.803C178.493 439.383 177.453 434.183 177.453 428.203V391.673C177.453 390.807 177.756 390.07 178.363 389.463C178.97 388.857 179.706 388.553 180.573 388.553H192.013C192.966 388.553 193.703 388.857 194.223 389.463C194.83 390.07 195.133 390.807 195.133 391.673V427.423C195.133 438.17 199.856 443.543 209.303 443.543C213.81 443.543 217.363 442.113 219.963 439.253C222.65 436.393 223.993 432.45 223.993 427.423V391.673C223.993 390.807 224.296 390.07 224.903 389.463C225.51 388.857 226.246 388.553 227.113 388.553H238.553C239.42 388.553 240.156 388.857 240.763 389.463C241.37 390.07 241.673 390.807 241.673 391.673V453.033C241.673 453.9 241.37 454.637 240.763 455.243C240.156 455.85 239.42 456.153 238.553 456.153H228.023C227.07 456.153 226.29 455.85 225.683 455.243C225.163 454.637 224.903 453.9 224.903 453.033V447.703C222.563 450.737 219.66 453.12 216.193 454.853C212.726 456.587 208.393 457.453 203.193 457.453ZM273.665 456.153C272.799 456.153 272.062 455.85 271.455 455.243C270.849 454.637 270.545 453.9 270.545 453.033V391.803C270.545 390.85 270.849 390.07 271.455 389.463C272.062 388.857 272.799 388.553 273.665 388.553H284.195C285.062 388.553 285.799 388.857 286.405 389.463C287.099 390.07 287.445 390.85 287.445 391.803V397.133C289.439 394.36 291.995 392.237 295.115 390.763C298.322 389.29 302.005 388.553 306.165 388.553H311.495C312.449 388.553 313.185 388.857 313.705 389.463C314.312 390.07 314.615 390.807 314.615 391.673V401.033C314.615 401.9 314.312 402.637 313.705 403.243C313.185 403.85 312.449 404.153 311.495 404.153H301.355C297.195 404.153 293.945 405.323 291.605 407.663C289.352 410.003 288.225 413.21 288.225 417.283V453.033C288.225 453.9 287.922 454.637 287.315 455.243C286.709 455.85 285.929 456.153 284.975 456.153H273.665ZM364.816 457.453C358.576 457.453 353.072 456.283 348.306 453.943C343.626 451.603 339.942 448.223 337.256 443.803C334.656 439.297 333.226 433.88 332.966 427.553C332.879 426.253 332.836 424.563 332.836 422.483C332.836 420.317 332.879 418.54 332.966 417.153C333.226 410.827 334.656 405.453 337.256 401.033C339.942 396.527 343.626 393.103 348.306 390.763C353.072 388.423 358.576 387.253 364.816 387.253C370.362 387.253 375.086 388.033 378.986 389.593C382.886 391.153 386.092 393.103 388.606 395.443C391.119 397.783 392.982 400.253 394.196 402.853C395.496 405.367 396.189 407.663 396.276 409.743C396.362 410.697 396.059 411.477 395.366 412.083C394.759 412.603 394.022 412.863 393.156 412.863H381.716C380.849 412.863 380.156 412.647 379.636 412.213C379.202 411.78 378.769 411.13 378.336 410.263C377.036 406.797 375.302 404.37 373.136 402.983C371.056 401.51 368.369 400.773 365.076 400.773C360.742 400.773 357.276 402.16 354.676 404.933C352.162 407.62 350.819 411.91 350.646 417.803C350.472 421.097 350.472 424.13 350.646 426.903C350.819 432.883 352.162 437.217 354.676 439.903C357.276 442.59 360.742 443.933 365.076 443.933C368.456 443.933 371.186 443.24 373.266 441.853C375.346 440.38 377.036 437.91 378.336 434.443C378.769 433.577 379.202 432.927 379.636 432.493C380.156 432.06 380.849 431.843 381.716 431.843H393.156C394.022 431.843 394.759 432.147 395.366 432.753C396.059 433.273 396.362 434.01 396.276 434.963C396.189 436.523 395.756 438.3 394.976 440.293C394.282 442.2 393.112 444.193 391.466 446.273C389.906 448.267 387.912 450.13 385.486 451.863C383.059 453.51 380.112 454.853 376.646 455.893C373.266 456.933 369.322 457.453 364.816 457.453ZM450.653 457.453C441.033 457.453 433.406 454.68 427.773 449.133C422.14 443.587 419.106 435.7 418.673 425.473C418.586 424.607 418.543 423.523 418.543 422.223C418.543 420.837 418.586 419.753 418.673 418.973C419.02 412.473 420.493 406.84 423.093 402.073C425.78 397.307 429.463 393.667 434.143 391.153C438.823 388.553 444.326 387.253 450.653 387.253C457.673 387.253 463.566 388.727 468.333 391.673C473.1 394.533 476.696 398.563 479.123 403.763C481.55 408.877 482.763 414.813 482.763 421.573V424.303C482.763 425.17 482.46 425.907 481.853 426.513C481.246 427.12 480.466 427.423 479.513 427.423H436.353C436.353 427.423 436.353 427.553 436.353 427.813C436.353 428.073 436.353 428.29 436.353 428.463C436.44 431.497 437.003 434.313 438.043 436.913C439.17 439.427 440.773 441.463 442.853 443.023C445.02 444.583 447.576 445.363 450.523 445.363C452.95 445.363 454.986 445.017 456.633 444.323C458.28 443.543 459.623 442.677 460.663 441.723C461.703 440.77 462.44 439.99 462.873 439.383C463.653 438.343 464.26 437.737 464.693 437.563C465.213 437.303 465.95 437.173 466.903 437.173H478.083C478.95 437.173 479.643 437.433 480.163 437.953C480.77 438.473 481.03 439.123 480.943 439.903C480.856 441.29 480.12 442.98 478.733 444.973C477.433 446.967 475.526 448.917 473.013 450.823C470.5 452.73 467.336 454.333 463.523 455.633C459.796 456.847 455.506 457.453 450.653 457.453ZM436.353 416.503H465.083V416.113C465.083 412.733 464.52 409.787 463.393 407.273C462.266 404.76 460.62 402.767 458.453 401.293C456.286 399.82 453.686 399.083 450.653 399.083C447.62 399.083 445.02 399.82 442.853 401.293C440.686 402.767 439.04 404.76 437.913 407.273C436.873 409.787 436.353 412.733 436.353 416.113V416.503ZM552.789 456.153C551.923 456.153 551.186 455.85 550.579 455.243C549.973 454.637 549.669 453.9 549.669 453.033V391.673C549.669 390.807 549.973 390.07 550.579 389.463C551.186 388.857 551.923 388.553 552.789 388.553H562.929C563.796 388.553 564.533 388.857 565.139 389.463C565.746 390.07 566.049 390.807 566.049 391.673V396.093C567.869 393.667 570.296 391.63 573.329 389.983C576.449 388.25 580.133 387.34 584.379 387.253C594.259 387.08 601.149 390.937 605.049 398.823C607.043 395.357 609.903 392.583 613.629 390.503C617.443 388.337 621.646 387.253 626.239 387.253C630.746 387.253 634.819 388.293 638.459 390.373C642.186 392.453 645.089 395.617 647.169 399.863C649.336 404.023 650.419 409.31 650.419 415.723V453.033C650.419 453.9 650.116 454.637 649.509 455.243C648.903 455.85 648.166 456.153 647.299 456.153H636.639C635.773 456.153 635.036 455.85 634.429 455.243C633.823 454.637 633.519 453.9 633.519 453.033V416.763C633.519 412.863 632.956 409.787 631.829 407.533C630.703 405.193 629.186 403.547 627.279 402.593C625.373 401.64 623.249 401.163 620.909 401.163C619.003 401.163 617.096 401.64 615.189 402.593C613.283 403.547 611.723 405.193 610.509 407.533C609.296 409.787 608.689 412.863 608.689 416.763V453.033C608.689 453.9 608.386 454.637 607.779 455.243C607.173 455.85 606.436 456.153 605.569 456.153H594.909C593.956 456.153 593.176 455.85 592.569 455.243C592.049 454.637 591.789 453.9 591.789 453.033V416.763C591.789 412.863 591.183 409.787 589.969 407.533C588.756 405.193 587.196 403.547 585.289 402.593C583.383 401.64 581.346 401.163 579.179 401.163C577.186 401.163 575.236 401.683 573.329 402.723C571.423 403.677 569.863 405.28 568.649 407.533C567.436 409.787 566.829 412.863 566.829 416.763V453.033C566.829 453.9 566.526 454.637 565.919 455.243C565.313 455.85 564.576 456.153 563.709 456.153H552.789ZM707.794 457.453C698.174 457.453 690.547 454.68 684.914 449.133C679.281 443.587 676.247 435.7 675.814 425.473C675.727 424.607 675.684 423.523 675.684 422.223C675.684 420.837 675.727 419.753 675.814 418.973C676.161 412.473 677.634 406.84 680.234 402.073C682.921 397.307 686.604 393.667 691.284 391.153C695.964 388.553 701.467 387.253 707.794 387.253C714.814 387.253 720.707 388.727 725.474 391.673C730.241 394.533 733.837 398.563 736.264 403.763C738.691 408.877 739.904 414.813 739.904 421.573V424.303C739.904 425.17 739.601 425.907 738.994 426.513C738.387 427.12 737.607 427.423 736.654 427.423H693.494C693.494 427.423 693.494 427.553 693.494 427.813C693.494 428.073 693.494 428.29 693.494 428.463C693.581 431.497 694.144 434.313 695.184 436.913C696.311 439.427 697.914 441.463 699.994 443.023C702.161 444.583 704.717 445.363 707.664 445.363C710.091 445.363 712.127 445.017 713.774 444.323C715.421 443.543 716.764 442.677 717.804 441.723C718.844 440.77 719.581 439.99 720.014 439.383C720.794 438.343 721.401 437.737 721.834 437.563C722.354 437.303 723.091 437.173 724.044 437.173H735.224C736.091 437.173 736.784 437.433 737.304 437.953C737.911 438.473 738.171 439.123 738.084 439.903C737.997 441.29 737.261 442.98 735.874 444.973C734.574 446.967 732.667 448.917 730.154 450.823C727.641 452.73 724.477 454.333 720.664 455.633C716.937 456.847 712.647 457.453 707.794 457.453ZM693.494 416.503H722.224V416.113C722.224 412.733 721.661 409.787 720.534 407.273C719.407 404.76 717.761 402.767 715.594 401.293C713.427 399.82 710.827 399.083 707.794 399.083C704.761 399.083 702.161 399.82 699.994 401.293C697.827 402.767 696.181 404.76 695.054 407.273C694.014 409.787 693.494 412.733 693.494 416.113V416.503ZM790.493 457.453C785.987 457.453 782 456.717 778.533 455.243C775.153 453.683 772.337 451.517 770.083 448.743C767.83 445.97 766.097 442.72 764.883 438.993C763.67 435.18 762.977 431.02 762.803 426.513C762.717 424.953 762.673 423.567 762.673 422.353C762.673 421.053 762.717 419.623 762.803 418.063C762.977 413.73 763.627 409.7 764.753 405.973C765.967 402.247 767.7 398.997 769.953 396.223C772.293 393.363 775.153 391.153 778.533 389.593C782 388.033 785.987 387.253 790.493 387.253C795.173 387.253 799.117 388.077 802.323 389.723C805.617 391.283 808.347 393.32 810.513 395.833V366.973C810.513 366.107 810.773 365.37 811.293 364.763C811.9 364.157 812.68 363.853 813.633 363.853H824.683C825.55 363.853 826.287 364.157 826.893 364.763C827.5 365.37 827.803 366.107 827.803 366.973V453.033C827.803 453.9 827.5 454.637 826.893 455.243C826.287 455.85 825.55 456.153 824.683 456.153H814.413C813.46 456.153 812.68 455.85 812.073 455.243C811.553 454.637 811.293 453.9 811.293 453.033V448.223C809.127 450.91 806.353 453.12 802.973 454.853C799.68 456.587 795.52 457.453 790.493 457.453ZM795.303 443.543C798.943 443.543 801.847 442.72 804.013 441.073C806.18 439.427 807.783 437.347 808.823 434.833C809.863 432.233 810.427 429.59 810.513 426.903C810.6 425.343 810.643 423.697 810.643 421.963C810.643 420.143 810.6 418.453 810.513 416.893C810.427 414.293 809.82 411.823 808.693 409.483C807.567 407.057 805.92 405.063 803.753 403.503C801.587 401.943 798.77 401.163 795.303 401.163C791.663 401.163 788.76 401.987 786.593 403.633C784.513 405.193 782.997 407.273 782.043 409.873C781.09 412.473 780.527 415.333 780.353 418.453C780.267 421.053 780.267 423.653 780.353 426.253C780.527 429.373 781.09 432.233 782.043 434.833C782.997 437.433 784.513 439.557 786.593 441.203C788.76 442.763 791.663 443.543 795.303 443.543ZM859.95 456.153C859.083 456.153 858.347 455.85 857.74 455.243C857.133 454.637 856.83 453.9 856.83 453.033V391.673C856.83 390.807 857.133 390.07 857.74 389.463C858.347 388.857 859.083 388.553 859.95 388.553H870.74C871.693 388.553 872.43 388.857 872.95 389.463C873.557 390.07 873.86 390.807 873.86 391.673V453.033C873.86 453.9 873.557 454.637 872.95 455.243C872.43 455.85 871.693 456.153 870.74 456.153H859.95ZM859.43 377.373C858.477 377.373 857.697 377.113 857.09 376.593C856.57 375.987 856.31 375.207 856.31 374.253V364.893C856.31 364.027 856.57 363.29 857.09 362.683C857.697 362.077 858.477 361.773 859.43 361.773H871.26C872.213 361.773 872.993 362.077 873.6 362.683C874.207 363.29 874.51 364.027 874.51 364.893V374.253C874.51 375.207 874.207 375.987 873.6 376.593C872.993 377.113 872.213 377.373 871.26 377.373H859.43ZM922.437 457.453C917.931 457.453 913.857 456.587 910.217 454.853C906.577 453.033 903.674 450.65 901.507 447.703C899.427 444.67 898.387 441.29 898.387 437.563C898.387 431.497 900.814 426.687 905.667 423.133C910.607 419.493 917.107 417.067 925.167 415.853L942.977 413.253V410.523C942.977 406.883 942.067 404.067 940.247 402.073C938.427 400.08 935.307 399.083 930.887 399.083C927.767 399.083 925.211 399.733 923.217 401.033C921.311 402.247 919.881 403.893 918.927 405.973C918.234 407.1 917.237 407.663 915.937 407.663H905.667C904.714 407.663 903.977 407.403 903.457 406.883C903.024 406.363 902.807 405.67 902.807 404.803C902.894 403.417 903.457 401.727 904.497 399.733C905.537 397.74 907.184 395.833 909.437 394.013C911.691 392.107 914.594 390.503 918.147 389.203C921.701 387.903 925.991 387.253 931.017 387.253C936.477 387.253 941.071 387.947 944.797 389.333C948.611 390.633 951.644 392.41 953.897 394.663C956.151 396.917 957.797 399.56 958.837 402.593C959.877 405.627 960.397 408.833 960.397 412.213V453.033C960.397 453.9 960.094 454.637 959.487 455.243C958.881 455.85 958.144 456.153 957.277 456.153H946.747C945.794 456.153 945.014 455.85 944.407 455.243C943.887 454.637 943.627 453.9 943.627 453.033V447.963C942.501 449.61 940.984 451.17 939.077 452.643C937.171 454.03 934.831 455.2 932.057 456.153C929.371 457.02 926.164 457.453 922.437 457.453ZM926.857 445.103C929.891 445.103 932.621 444.453 935.047 443.153C937.561 441.853 939.511 439.86 940.897 437.173C942.371 434.4 943.107 430.933 943.107 426.773V424.043L930.107 426.123C924.994 426.903 921.181 428.16 918.667 429.893C916.154 431.627 914.897 433.75 914.897 436.263C914.897 438.17 915.461 439.817 916.587 441.203C917.801 442.503 919.317 443.5 921.137 444.193C922.957 444.8 924.864 445.103 926.857 445.103ZM1049.81 457.453C1045.31 457.453 1041.23 456.587 1037.59 454.853C1033.95 453.033 1031.05 450.65 1028.88 447.703C1026.8 444.67 1025.76 441.29 1025.76 437.563C1025.76 431.497 1028.19 426.687 1033.04 423.133C1037.98 419.493 1044.48 417.067 1052.54 415.853L1070.35 413.253V410.523C1070.35 406.883 1069.44 404.067 1067.62 402.073C1065.8 400.08 1062.68 399.083 1058.26 399.083C1055.14 399.083 1052.59 399.733 1050.59 401.033C1048.69 402.247 1047.26 403.893 1046.3 405.973C1045.61 407.1 1044.61 407.663 1043.31 407.663H1033.04C1032.09 407.663 1031.35 407.403 1030.83 406.883C1030.4 406.363 1030.18 405.67 1030.18 404.803C1030.27 403.417 1030.83 401.727 1031.87 399.733C1032.91 397.74 1034.56 395.833 1036.81 394.013C1039.07 392.107 1041.97 390.503 1045.52 389.203C1049.08 387.903 1053.37 387.253 1058.39 387.253C1063.85 387.253 1068.45 387.947 1072.17 389.333C1075.99 390.633 1079.02 392.41 1081.27 394.663C1083.53 396.917 1085.17 399.56 1086.21 402.593C1087.25 405.627 1087.77 408.833 1087.77 412.213V453.033C1087.77 453.9 1087.47 454.637 1086.86 455.243C1086.26 455.85 1085.52 456.153 1084.65 456.153H1074.12C1073.17 456.153 1072.39 455.85 1071.78 455.243C1071.26 454.637 1071 453.9 1071 453.033V447.963C1069.88 449.61 1068.36 451.17 1066.45 452.643C1064.55 454.03 1062.21 455.2 1059.43 456.153C1056.75 457.02 1053.54 457.453 1049.81 457.453ZM1054.23 445.103C1057.27 445.103 1060 444.453 1062.42 443.153C1064.94 441.853 1066.89 439.86 1068.27 437.173C1069.75 434.4 1070.48 430.933 1070.48 426.773V424.043L1057.48 426.123C1052.37 426.903 1048.56 428.16 1046.04 429.893C1043.53 431.627 1042.27 433.75 1042.27 436.263C1042.27 438.17 1042.84 439.817 1043.96 441.203C1045.18 442.503 1046.69 443.5 1048.51 444.193C1050.33 444.8 1052.24 445.103 1054.23 445.103ZM1119.27 456.153C1118.4 456.153 1117.67 455.85 1117.06 455.243C1116.45 454.637 1116.15 453.9 1116.15 453.033V391.673C1116.15 390.807 1116.45 390.07 1117.06 389.463C1117.67 388.857 1118.4 388.553 1119.27 388.553H1129.93C1130.8 388.553 1131.53 388.857 1132.14 389.463C1132.75 390.07 1133.05 390.807 1133.05 391.673V397.003C1135.3 394.23 1138.16 391.933 1141.63 390.113C1145.18 388.207 1149.56 387.253 1154.76 387.253C1160.05 387.253 1164.64 388.467 1168.54 390.893C1172.44 393.233 1175.43 396.57 1177.51 400.903C1179.68 405.237 1180.76 410.437 1180.76 416.503V453.033C1180.76 453.9 1180.46 454.637 1179.85 455.243C1179.24 455.85 1178.51 456.153 1177.64 456.153H1166.2C1165.33 456.153 1164.6 455.85 1163.99 455.243C1163.38 454.637 1163.08 453.9 1163.08 453.033V417.283C1163.08 412.257 1161.82 408.313 1159.31 405.453C1156.88 402.593 1153.33 401.163 1148.65 401.163C1144.14 401.163 1140.55 402.593 1137.86 405.453C1135.17 408.313 1133.83 412.257 1133.83 417.283V453.033C1133.83 453.9 1133.53 454.637 1132.92 455.243C1132.31 455.85 1131.58 456.153 1130.71 456.153H1119.27ZM1234.06 457.453C1229.56 457.453 1225.57 456.717 1222.1 455.243C1218.72 453.683 1215.91 451.517 1213.65 448.743C1211.4 445.97 1209.67 442.72 1208.45 438.993C1207.24 435.18 1206.55 431.02 1206.37 426.513C1206.29 424.953 1206.24 423.567 1206.24 422.353C1206.24 421.053 1206.29 419.623 1206.37 418.063C1206.55 413.73 1207.2 409.7 1208.32 405.973C1209.54 402.247 1211.27 398.997 1213.52 396.223C1215.86 393.363 1218.72 391.153 1222.1 389.593C1225.57 388.033 1229.56 387.253 1234.06 387.253C1238.74 387.253 1242.69 388.077 1245.89 389.723C1249.19 391.283 1251.92 393.32 1254.08 395.833V366.973C1254.08 366.107 1254.34 365.37 1254.86 364.763C1255.47 364.157 1256.25 363.853 1257.2 363.853H1268.25C1269.12 363.853 1269.86 364.157 1270.46 364.763C1271.07 365.37 1271.37 366.107 1271.37 366.973V453.033C1271.37 453.9 1271.07 454.637 1270.46 455.243C1269.86 455.85 1269.12 456.153 1268.25 456.153H1257.98C1257.03 456.153 1256.25 455.85 1255.64 455.243C1255.12 454.637 1254.86 453.9 1254.86 453.033V448.223C1252.7 450.91 1249.92 453.12 1246.54 454.853C1243.25 456.587 1239.09 457.453 1234.06 457.453ZM1238.87 443.543C1242.51 443.543 1245.42 442.72 1247.58 441.073C1249.75 439.427 1251.35 437.347 1252.39 434.833C1253.43 432.233 1254 429.59 1254.08 426.903C1254.17 425.343 1254.21 423.697 1254.21 421.963C1254.21 420.143 1254.17 418.453 1254.08 416.893C1254 414.293 1253.39 411.823 1252.26 409.483C1251.14 407.057 1249.49 405.063 1247.32 403.503C1245.16 401.943 1242.34 401.163 1238.87 401.163C1235.23 401.163 1232.33 401.987 1230.16 403.633C1228.08 405.193 1226.57 407.273 1225.61 409.873C1224.66 412.473 1224.1 415.333 1223.92 418.453C1223.84 421.053 1223.84 423.653 1223.92 426.253C1224.1 429.373 1224.66 432.233 1225.61 434.833C1226.57 437.433 1228.08 439.557 1230.16 441.203C1232.33 442.763 1235.23 443.543 1238.87 443.543ZM1366.9 457.453C1362.39 457.453 1358.4 456.717 1354.94 455.243C1351.56 453.683 1348.74 451.517 1346.49 448.743C1344.23 445.97 1342.5 442.72 1341.29 438.993C1340.07 435.18 1339.38 431.02 1339.21 426.513C1339.12 424.953 1339.08 423.567 1339.08 422.353C1339.08 421.053 1339.12 419.623 1339.21 418.063C1339.38 413.73 1340.03 409.7 1341.16 405.973C1342.37 402.247 1344.1 398.997 1346.36 396.223C1348.7 393.363 1351.56 391.153 1354.94 389.593C1358.4 388.033 1362.39 387.253 1366.9 387.253C1371.58 387.253 1375.52 388.077 1378.73 389.723C1382.02 391.283 1384.75 393.32 1386.92 395.833V366.973C1386.92 366.107 1387.18 365.37 1387.7 364.763C1388.3 364.157 1389.08 363.853 1390.04 363.853H1401.09C1401.95 363.853 1402.69 364.157 1403.3 364.763C1403.9 365.37 1404.21 366.107 1404.21 366.973V453.033C1404.21 453.9 1403.9 454.637 1403.3 455.243C1402.69 455.85 1401.95 456.153 1401.09 456.153H1390.82C1389.86 456.153 1389.08 455.85 1388.48 455.243C1387.96 454.637 1387.7 453.9 1387.7 453.033V448.223C1385.53 450.91 1382.76 453.12 1379.38 454.853C1376.08 456.587 1371.92 457.453 1366.9 457.453ZM1371.71 443.543C1375.35 443.543 1378.25 442.72 1380.42 441.073C1382.58 439.427 1384.19 437.347 1385.23 434.833C1386.27 432.233 1386.83 429.59 1386.92 426.903C1387 425.343 1387.05 423.697 1387.05 421.963C1387.05 420.143 1387 418.453 1386.92 416.893C1386.83 414.293 1386.22 411.823 1385.1 409.483C1383.97 407.057 1382.32 405.063 1380.16 403.503C1377.99 401.943 1375.17 401.163 1371.71 401.163C1368.07 401.163 1365.16 401.987 1363 403.633C1360.92 405.193 1359.4 407.273 1358.45 409.873C1357.49 412.473 1356.93 415.333 1356.76 418.453C1356.67 421.053 1356.67 423.653 1356.76 426.253C1356.93 429.373 1357.49 432.233 1358.45 434.833C1359.4 437.433 1360.92 439.557 1363 441.203C1365.16 442.763 1368.07 443.543 1371.71 443.543ZM1462.35 457.453C1452.73 457.453 1445.11 454.68 1439.47 449.133C1433.84 443.587 1430.81 435.7 1430.37 425.473C1430.29 424.607 1430.24 423.523 1430.24 422.223C1430.24 420.837 1430.29 419.753 1430.37 418.973C1430.72 412.473 1432.19 406.84 1434.79 402.073C1437.48 397.307 1441.16 393.667 1445.84 391.153C1450.52 388.553 1456.03 387.253 1462.35 387.253C1469.37 387.253 1475.27 388.727 1480.03 391.673C1484.8 394.533 1488.4 398.563 1490.82 403.763C1493.25 408.877 1494.46 414.813 1494.46 421.573V424.303C1494.46 425.17 1494.16 425.907 1493.55 426.513C1492.95 427.12 1492.17 427.423 1491.21 427.423H1448.05C1448.05 427.423 1448.05 427.553 1448.05 427.813C1448.05 428.073 1448.05 428.29 1448.05 428.463C1448.14 431.497 1448.7 434.313 1449.74 436.913C1450.87 439.427 1452.47 441.463 1454.55 443.023C1456.72 444.583 1459.28 445.363 1462.22 445.363C1464.65 445.363 1466.69 445.017 1468.33 444.323C1469.98 443.543 1471.32 442.677 1472.36 441.723C1473.4 440.77 1474.14 439.99 1474.57 439.383C1475.35 438.343 1475.96 437.737 1476.39 437.563C1476.91 437.303 1477.65 437.173 1478.6 437.173H1489.78C1490.65 437.173 1491.34 437.433 1491.86 437.953C1492.47 438.473 1492.73 439.123 1492.64 439.903C1492.56 441.29 1491.82 442.98 1490.43 444.973C1489.13 446.967 1487.23 448.917 1484.71 450.823C1482.2 452.73 1479.04 454.333 1475.22 455.633C1471.5 456.847 1467.21 457.453 1462.35 457.453ZM1448.05 416.503H1476.78V416.113C1476.78 412.733 1476.22 409.787 1475.09 407.273C1473.97 404.76 1472.32 402.767 1470.15 401.293C1467.99 399.82 1465.39 399.083 1462.35 399.083C1459.32 399.083 1456.72 399.82 1454.55 401.293C1452.39 402.767 1450.74 404.76 1449.61 407.273C1448.57 409.787 1448.05 412.733 1448.05 416.113V416.503ZM1541.47 456.153C1540.08 456.153 1539.04 455.85 1538.35 455.243C1537.74 454.55 1537.22 453.77 1536.79 452.903L1512.48 392.583C1512.31 392.15 1512.22 391.76 1512.22 391.413C1512.22 390.633 1512.48 389.983 1513 389.463C1513.61 388.857 1514.3 388.553 1515.08 388.553H1525.61C1526.65 388.553 1527.43 388.857 1527.95 389.463C1528.47 389.983 1528.82 390.503 1528.99 391.023L1546.28 436.653L1563.57 391.023C1563.74 390.503 1564.09 389.983 1564.61 389.463C1565.13 388.857 1565.91 388.553 1566.95 388.553H1577.61C1578.3 388.553 1578.91 388.857 1579.43 389.463C1580.04 389.983 1580.34 390.633 1580.34 391.413C1580.34 391.76 1580.3 392.15 1580.21 392.583L1555.77 452.903C1555.42 453.77 1554.9 454.55 1554.21 455.243C1553.52 455.85 1552.48 456.153 1551.09 456.153H1541.47ZM1630.61 457.453C1620.99 457.453 1613.36 454.68 1607.73 449.133C1602.09 443.587 1599.06 435.7 1598.63 425.473C1598.54 424.607 1598.5 423.523 1598.5 422.223C1598.5 420.837 1598.54 419.753 1598.63 418.973C1598.97 412.473 1600.45 406.84 1603.05 402.073C1605.73 397.307 1609.42 393.667 1614.1 391.153C1618.78 388.553 1624.28 387.253 1630.61 387.253C1637.63 387.253 1643.52 388.727 1648.29 391.673C1653.05 394.533 1656.65 398.563 1659.08 403.763C1661.5 408.877 1662.72 414.813 1662.72 421.573V424.303C1662.72 425.17 1662.41 425.907 1661.81 426.513C1661.2 427.12 1660.42 427.423 1659.47 427.423H1616.31C1616.31 427.423 1616.31 427.553 1616.31 427.813C1616.31 428.073 1616.31 428.29 1616.31 428.463C1616.39 431.497 1616.96 434.313 1618 436.913C1619.12 439.427 1620.73 441.463 1622.81 443.023C1624.97 444.583 1627.53 445.363 1630.48 445.363C1632.9 445.363 1634.94 445.017 1636.59 444.323C1638.23 443.543 1639.58 442.677 1640.62 441.723C1641.66 440.77 1642.39 439.99 1642.83 439.383C1643.61 438.343 1644.21 437.737 1644.65 437.563C1645.17 437.303 1645.9 437.173 1646.86 437.173H1658.04C1658.9 437.173 1659.6 437.433 1660.12 437.953C1660.72 438.473 1660.98 439.123 1660.9 439.903C1660.81 441.29 1660.07 442.98 1658.69 444.973C1657.39 446.967 1655.48 448.917 1652.97 450.823C1650.45 452.73 1647.29 454.333 1643.48 455.633C1639.75 456.847 1635.46 457.453 1630.61 457.453ZM1616.31 416.503H1645.04V416.113C1645.04 412.733 1644.47 409.787 1643.35 407.273C1642.22 404.76 1640.57 402.767 1638.41 401.293C1636.24 399.82 1633.64 399.083 1630.61 399.083C1627.57 399.083 1624.97 399.82 1622.81 401.293C1620.64 402.767 1618.99 404.76 1617.87 407.273C1616.83 409.787 1616.31 412.733 1616.31 416.113V416.503ZM1691.47 456.153C1690.6 456.153 1689.86 455.85 1689.26 455.243C1688.65 454.637 1688.35 453.9 1688.35 453.033V366.973C1688.35 366.107 1688.65 365.37 1689.26 364.763C1689.86 364.157 1690.6 363.853 1691.47 363.853H1702.26C1703.12 363.853 1703.86 364.157 1704.47 364.763C1705.07 365.37 1705.38 366.107 1705.38 366.973V453.033C1705.38 453.9 1705.07 454.637 1704.47 455.243C1703.86 455.85 1703.12 456.153 1702.26 456.153H1691.47ZM1764.22 457.453C1757.29 457.453 1751.44 456.24 1746.67 453.813C1741.99 451.387 1738.39 447.963 1735.88 443.543C1733.45 439.123 1732.07 433.967 1731.72 428.073C1731.63 426.513 1731.59 424.607 1731.59 422.353C1731.59 420.1 1731.63 418.193 1731.72 416.633C1732.07 410.653 1733.5 405.497 1736.01 401.163C1738.61 396.743 1742.25 393.32 1746.93 390.893C1751.7 388.467 1757.46 387.253 1764.22 387.253C1770.98 387.253 1776.7 388.467 1781.38 390.893C1786.15 393.32 1789.79 396.743 1792.3 401.163C1794.9 405.497 1796.37 410.653 1796.72 416.633C1796.81 418.193 1796.85 420.1 1796.85 422.353C1796.85 424.607 1796.81 426.513 1796.72 428.073C1796.37 433.967 1794.94 439.123 1792.43 443.543C1790 447.963 1786.41 451.387 1781.64 453.813C1776.96 456.24 1771.15 457.453 1764.22 457.453ZM1764.22 444.583C1768.81 444.583 1772.37 443.153 1774.88 440.293C1777.39 437.347 1778.78 433.057 1779.04 427.423C1779.13 426.123 1779.17 424.433 1779.17 422.353C1779.17 420.273 1779.13 418.583 1779.04 417.283C1778.78 411.737 1777.39 407.49 1774.88 404.543C1772.37 401.597 1768.81 400.123 1764.22 400.123C1759.63 400.123 1756.07 401.597 1753.56 404.543C1751.05 407.49 1749.66 411.737 1749.4 417.283C1749.31 418.583 1749.27 420.273 1749.27 422.353C1749.27 424.433 1749.31 426.123 1749.4 427.423C1749.66 433.057 1751.05 437.347 1753.56 440.293C1756.07 443.153 1759.63 444.583 1764.22 444.583ZM1826.2 480.853C1825.34 480.853 1824.6 480.55 1823.99 479.943C1823.39 479.337 1823.08 478.6 1823.08 477.733V391.673C1823.08 390.807 1823.39 390.07 1823.99 389.463C1824.6 388.857 1825.34 388.553 1826.2 388.553H1836.47C1837.43 388.553 1838.16 388.857 1838.68 389.463C1839.29 390.07 1839.59 390.807 1839.59 391.673V396.873C1841.67 394.1 1844.4 391.803 1847.78 389.983C1851.16 388.163 1855.37 387.253 1860.39 387.253C1864.99 387.253 1868.97 387.99 1872.35 389.463C1875.73 390.937 1878.55 393.06 1880.8 395.833C1883.06 398.52 1884.79 401.727 1886 405.453C1887.22 409.18 1887.91 413.297 1888.08 417.803C1888.17 419.277 1888.21 420.793 1888.21 422.353C1888.21 423.913 1888.17 425.473 1888.08 427.033C1888 431.367 1887.35 435.397 1886.13 439.123C1884.92 442.763 1883.14 445.97 1880.8 448.743C1878.55 451.43 1875.73 453.553 1872.35 455.113C1868.97 456.673 1864.99 457.453 1860.39 457.453C1855.71 457.453 1851.73 456.63 1848.43 454.983C1845.14 453.25 1842.45 450.997 1840.37 448.223V477.733C1840.37 478.6 1840.07 479.337 1839.46 479.943C1838.94 480.55 1838.21 480.853 1837.25 480.853H1826.2ZM1855.58 443.543C1859.31 443.543 1862.21 442.763 1864.29 441.203C1866.37 439.557 1867.85 437.433 1868.71 434.833C1869.67 432.233 1870.23 429.373 1870.4 426.253C1870.58 423.653 1870.58 421.053 1870.4 418.453C1870.23 415.333 1869.67 412.473 1868.71 409.873C1867.85 407.273 1866.37 405.193 1864.29 403.633C1862.21 401.987 1859.31 401.163 1855.58 401.163C1852.03 401.163 1849.13 401.987 1846.87 403.633C1844.71 405.28 1843.1 407.403 1842.06 410.003C1841.11 412.517 1840.55 415.117 1840.37 417.803C1840.29 419.363 1840.24 421.01 1840.24 422.743C1840.24 424.477 1840.29 426.167 1840.37 427.813C1840.46 430.413 1841.07 432.927 1842.19 435.353C1843.32 437.693 1844.97 439.643 1847.13 441.203C1849.3 442.763 1852.12 443.543 1855.58 443.543ZM1917.63 456.153C1916.76 456.153 1916.02 455.85 1915.42 455.243C1914.81 454.637 1914.51 453.9 1914.51 453.033V391.673C1914.51 390.807 1914.81 390.07 1915.42 389.463C1916.02 388.857 1916.76 388.553 1917.63 388.553H1927.77C1928.63 388.553 1929.37 388.857 1929.98 389.463C1930.58 390.07 1930.89 390.807 1930.89 391.673V396.093C1932.71 393.667 1935.13 391.63 1938.17 389.983C1941.29 388.25 1944.97 387.34 1949.22 387.253C1959.1 387.08 1965.99 390.937 1969.89 398.823C1971.88 395.357 1974.74 392.583 1978.47 390.503C1982.28 388.337 1986.48 387.253 1991.08 387.253C1995.58 387.253 1999.66 388.293 2003.3 390.373C2007.02 392.453 2009.93 395.617 2012.01 399.863C2014.17 404.023 2015.26 409.31 2015.26 415.723V453.033C2015.26 453.9 2014.95 454.637 2014.35 455.243C2013.74 455.85 2013 456.153 2012.14 456.153H2001.48C2000.61 456.153 1999.87 455.85 1999.27 455.243C1998.66 454.637 1998.36 453.9 1998.36 453.033V416.763C1998.36 412.863 1997.79 409.787 1996.67 407.533C1995.54 405.193 1994.02 403.547 1992.12 402.593C1990.21 401.64 1988.09 401.163 1985.75 401.163C1983.84 401.163 1981.93 401.64 1980.03 402.593C1978.12 403.547 1976.56 405.193 1975.35 407.533C1974.13 409.787 1973.53 412.863 1973.53 416.763V453.033C1973.53 453.9 1973.22 454.637 1972.62 455.243C1972.01 455.85 1971.27 456.153 1970.41 456.153H1959.75C1958.79 456.153 1958.01 455.85 1957.41 455.243C1956.89 454.637 1956.63 453.9 1956.63 453.033V416.763C1956.63 412.863 1956.02 409.787 1954.81 407.533C1953.59 405.193 1952.03 403.547 1950.13 402.593C1948.22 401.64 1946.18 401.163 1944.02 401.163C1942.02 401.163 1940.07 401.683 1938.17 402.723C1936.26 403.677 1934.7 405.28 1933.49 407.533C1932.27 409.787 1931.67 412.863 1931.67 416.763V453.033C1931.67 453.9 1931.36 454.637 1930.76 455.243C1930.15 455.85 1929.41 456.153 1928.55 456.153H1917.63ZM2072.63 457.453C2063.01 457.453 2055.38 454.68 2049.75 449.133C2044.12 443.587 2041.08 435.7 2040.65 425.473C2040.56 424.607 2040.52 423.523 2040.52 422.223C2040.52 420.837 2040.56 419.753 2040.65 418.973C2041 412.473 2042.47 406.84 2045.07 402.073C2047.76 397.307 2051.44 393.667 2056.12 391.153C2060.8 388.553 2066.3 387.253 2072.63 387.253C2079.65 387.253 2085.54 388.727 2090.31 391.673C2095.08 394.533 2098.67 398.563 2101.1 403.763C2103.53 408.877 2104.74 414.813 2104.74 421.573V424.303C2104.74 425.17 2104.44 425.907 2103.83 426.513C2103.22 427.12 2102.44 427.423 2101.49 427.423H2058.33C2058.33 427.423 2058.33 427.553 2058.33 427.813C2058.33 428.073 2058.33 428.29 2058.33 428.463C2058.42 431.497 2058.98 434.313 2060.02 436.913C2061.15 439.427 2062.75 441.463 2064.83 443.023C2067 444.583 2069.55 445.363 2072.5 445.363C2074.93 445.363 2076.96 445.017 2078.61 444.323C2080.26 443.543 2081.6 442.677 2082.64 441.723C2083.68 440.77 2084.42 439.99 2084.85 439.383C2085.63 438.343 2086.24 437.737 2086.67 437.563C2087.19 437.303 2087.93 437.173 2088.88 437.173H2100.06C2100.93 437.173 2101.62 437.433 2102.14 437.953C2102.75 438.473 2103.01 439.123 2102.92 439.903C2102.83 441.29 2102.1 442.98 2100.71 444.973C2099.41 446.967 2097.5 448.917 2094.99 450.823C2092.48 452.73 2089.31 454.333 2085.5 455.633C2081.77 456.847 2077.48 457.453 2072.63 457.453ZM2058.33 416.503H2087.06V416.113C2087.06 412.733 2086.5 409.787 2085.37 407.273C2084.24 404.76 2082.6 402.767 2080.43 401.293C2078.26 399.82 2075.66 399.083 2072.63 399.083C2069.6 399.083 2067 399.82 2064.83 401.293C2062.66 402.767 2061.02 404.76 2059.89 407.273C2058.85 409.787 2058.33 412.733 2058.33 416.113V416.503ZM2133.36 456.153C2132.49 456.153 2131.76 455.85 2131.15 455.243C2130.54 454.637 2130.24 453.9 2130.24 453.033V391.673C2130.24 390.807 2130.54 390.07 2131.15 389.463C2131.76 388.857 2132.49 388.553 2133.36 388.553H2144.02C2144.89 388.553 2145.62 388.857 2146.23 389.463C2146.84 390.07 2147.14 390.807 2147.14 391.673V397.003C2149.39 394.23 2152.25 391.933 2155.72 390.113C2159.27 388.207 2163.65 387.253 2168.85 387.253C2174.14 387.253 2178.73 388.467 2182.63 390.893C2186.53 393.233 2189.52 396.57 2191.6 400.903C2193.77 405.237 2194.85 410.437 2194.85 416.503V453.033C2194.85 453.9 2194.55 454.637 2193.94 455.243C2193.33 455.85 2192.6 456.153 2191.73 456.153H2180.29C2179.42 456.153 2178.69 455.85 2178.08 455.243C2177.47 454.637 2177.17 453.9 2177.17 453.033V417.283C2177.17 412.257 2175.91 408.313 2173.4 405.453C2170.97 402.593 2167.42 401.163 2162.74 401.163C2158.23 401.163 2154.64 402.593 2151.95 405.453C2149.26 408.313 2147.92 412.257 2147.92 417.283V453.033C2147.92 453.9 2147.62 454.637 2147.01 455.243C2146.4 455.85 2145.67 456.153 2144.8 456.153H2133.36ZM2252.85 456.153C2247.65 456.153 2243.28 455.243 2239.72 453.423C2236.17 451.603 2233.53 448.917 2231.79 445.363C2230.06 441.723 2229.19 437.217 2229.19 431.843V402.333H2218.92C2218.06 402.333 2217.32 402.03 2216.71 401.423C2216.11 400.817 2215.8 400.08 2215.8 399.213V391.673C2215.8 390.807 2216.11 390.07 2216.71 389.463C2217.32 388.857 2218.06 388.553 2218.92 388.553H2229.19V366.973C2229.19 366.107 2229.45 365.37 2229.97 364.763C2230.58 364.157 2231.36 363.853 2232.31 363.853H2242.84C2243.71 363.853 2244.45 364.157 2245.05 364.763C2245.66 365.37 2245.96 366.107 2245.96 366.973V388.553H2262.21C2263.08 388.553 2263.82 388.857 2264.42 389.463C2265.03 390.07 2265.33 390.807 2265.33 391.673V399.213C2265.33 400.08 2265.03 400.817 2264.42 401.423C2263.82 402.03 2263.08 402.333 2262.21 402.333H2245.96V430.543C2245.96 434.097 2246.57 436.87 2247.78 438.863C2249.08 440.857 2251.29 441.853 2254.41 441.853H2263.38C2264.25 441.853 2264.99 442.157 2265.59 442.763C2266.2 443.37 2266.5 444.107 2266.5 444.973V453.033C2266.5 453.9 2266.2 454.637 2265.59 455.243C2264.99 455.85 2264.25 456.153 2263.38 456.153H2252.85Z" fill="#758CA3"/>
<path d="M1129.25 38.2783H1067.38C1044.59 38.2783 1026.12 56.7466 1026.12 79.5283V265.153H1314.88V172.341" stroke="#758CA3" stroke-width="20" stroke-linecap="round" stroke-linejoin="round"/>
<path fill-rule="evenodd" clip-rule="evenodd" d="M1276.19 5.05516C1277.08 1.48047 1280.7 -0.692889 1284.28 0.200781C1287.85 1.09445 1290.03 4.7167 1289.13 8.29139L1262.45 115.038C1261.55 118.613 1257.93 120.786 1254.36 119.892C1250.78 118.999 1248.61 115.377 1249.5 111.802L1276.19 5.05516ZM1234 31.4059L1205.36 60.0467L1234 88.6875C1236.61 91.2928 1236.61 95.5173 1234 98.1226C1231.4 100.728 1227.17 100.728 1224.57 98.1226L1191.21 64.7642C1188.61 62.1589 1188.61 57.9344 1191.21 55.3291L1224.57 21.9707C1227.17 19.3652 1231.4 19.3652 1234 21.9707C1236.61 24.5761 1236.61 28.8004 1234 31.4059ZM1304.63 88.6875L1333.27 60.0467L1304.63 31.4059C1302.02 28.8004 1302.02 24.5761 1304.63 21.9707C1307.23 19.3652 1311.46 19.3652 1314.06 21.9707L1347.42 55.3291C1350.03 57.9344 1350.03 62.1589 1347.42 64.7642L1314.06 98.1226C1311.46 100.728 1307.23 100.728 1304.63 98.1226C1302.02 95.5173 1302.02 91.2928 1304.63 88.6875Z" fill="#758CA3"/>
<path d="M984.875 265.153H1356.12V285.778C1356.12 308.561 1337.66 327.028 1314.88 327.028H1026.12C1003.34 327.028 984.875 308.561 984.875 285.778V265.153Z" stroke="#758CA3" stroke-width="20" stroke-linecap="round" stroke-linejoin="round"/>
</svg>
